<svg width="24" height="24" viewBox="0 0 24 24" fill="none" xmlns="http://www.w3.org/2000/svg">
<g clip-path="url(#clip0_87_965)">
<rect width="24" height="24" rx="4" fill="#FF538A"/>
<path d="M17.28 6.24005H16.08V5.76005C16.08 5.23205 15.648 4.80005 15.12 4.80005C14.592 4.80005 14.16 5.23205 14.16 5.76005V6.24005H9.84003V5.76005C9.84003 5.23205 9.40803 4.80005 8.88003 4.80005C8.35203 4.80005 7.92003 5.23205 7.92003 5.76005V6.24005H6.72003C5.92803 6.24005 5.28003 6.88805 5.28003 7.68005V8.16005C5.28003 8.42405 5.49603 8.64005 5.76003 8.64005H18.24C18.504 8.64005 18.72 8.42405 18.72 8.16005V7.68005C18.72 6.88805 18.072 6.24005 17.28 6.24005ZM18.24 10.08H5.76003C5.49603 10.08 5.28003 10.296 5.28003 10.56V17.76C5.28003 18.552 5.92803 19.2 6.72003 19.2H17.28C18.072 19.2 18.72 18.552 18.72 17.76V10.56C18.72 10.296 18.504 10.08 18.24 10.08ZM10.152 14.376C10.152 14.232 10.272 14.112 10.416 14.112H15.072C15.216 14.112 15.336 14.232 15.336 14.376V14.904C15.336 15.048 15.216 15.168 15.072 15.168H10.416C10.272 15.168 10.152 15.048 10.152 14.904V14.376ZM9.07203 17.28C9.09603 17.424 8.97603 17.544 8.83203 17.544H8.28003C8.13603 17.544 8.01603 17.424 8.01603 17.28V16.752C8.01603 16.608 8.13603 16.488 8.28003 16.488H8.80803C8.95203 16.488 9.07203 16.608 9.07203 16.752V17.28ZM9.07203 14.904C9.09603 15.048 8.97603 15.168 8.83203 15.168H8.28003C8.13603 15.168 8.01603 15.048 8.01603 14.904V14.376C8.01603 14.232 8.13603 14.112 8.28003 14.112H8.80803C8.95203 14.112 9.07203 14.232 9.07203 14.376V14.904ZM9.07203 12.528C9.09603 12.672 8.97603 12.792 8.83203 12.792H8.28003C8.13603 12.792 8.01603 12.672 8.01603 12.528V12C8.01603 11.856 8.13603 11.736 8.28003 11.736H8.80803C8.95203 11.736 9.07203 11.856 9.07203 12V12.528ZM15.984 17.28C15.984 17.424 15.864 17.544 15.72 17.544H10.416C10.272 17.544 10.152 17.424 10.152 17.28V16.752C10.152 16.608 10.272 16.488 10.416 16.488H15.72C15.864 16.488 15.984 16.608 15.984 16.752V17.28ZM15.984 12.528C15.984 12.672 15.864 12.792 15.72 12.792H10.416C10.272 12.792 10.152 12.672 10.152 12.528V12C10.152 11.856 10.272 11.736 10.416 11.736H15.72C15.864 11.736 15.984 11.856 15.984 12V12.528Z" fill="white"/>
</g>
<defs>
<clipPath id="clip0_87_965">
<path d="M0 12C0 5.37258 5.37258 0 12 0C18.6274 0 24 5.37258 24 12C24 18.6274 18.6274 24 12 24C5.37258 24 0 18.6274 0 12Z" fill="white"/>
</clipPath>
</defs>
</svg>
